<svg width="54" height="51" viewBox="0 0 54 51" fill="none" xmlns="http://www.w3.org/2000/svg">
<path fill-rule="evenodd" clip-rule="evenodd" d="M20.9451 1.71194C22.743 2.59659 24.8122 4.6366 24.8122 5.52423C24.8122 6.14176 23.0036 6.3131 16.4832 6.3131C9.70936 6.3131 8.15422 6.15663 8.15422 5.47366C8.15422 4.32188 11.465 1.63043 13.4056 1.20387C14.2802 1.01171 15.2636 0.77612 15.5908 0.680336C16.4475 0.428683 19.5542 1.02777 20.9451 1.71194ZM42.7522 1.92254C44.8124 2.95712 46.2295 4.40041 46.2295 5.46295C46.2295 6.15901 44.7226 6.3131 37.9006 6.3131C31.1267 6.3131 29.5716 6.15663 29.5716 5.47366C29.5716 4.32188 32.8823 1.63043 34.823 1.20387C35.6975 1.01171 36.681 0.77612 37.0082 0.680336C37.9672 0.398936 41.0441 1.06406 42.7522 1.92254ZM23.4795 9.54296C23.7217 9.78628 23.376 10.4306 22.7109 10.9749C22.0458 11.5193 17.1257 15.7129 11.7773 20.2939C6.42834 24.8748 1.75222 28.6228 1.38515 28.6228C0.409472 28.6228 0.244082 25.7934 1.00559 22.1257C2.39415 15.4345 8.20777 9.79342 14.6984 8.83737C17.9991 8.35132 22.6657 8.72612 23.4795 9.54296ZM44.1967 10.0546C49.905 12.9471 53.6096 18.8185 53.6477 25.0343C53.6619 27.3842 53.462 28.0279 52.7184 28.0279C51.4167 28.0279 30.5294 9.87016 31.1535 9.28119C32.94 7.59398 40.1892 8.02351 44.1967 10.0546ZM19.1987 29.0867C16.7128 38.0989 16.4708 38.9761 16.0954 39.0375C16.0549 39.0441 16.0128 39.0413 15.9663 39.0381C15.9373 39.0361 15.9066 39.0341 15.8734 39.0341C15.5819 39.0341 14.6127 37.7871 13.7198 36.2629C12.4222 34.0492 12.0992 32.7635 12.1146 29.8674C12.1373 25.5489 13.2242 22.7521 15.9317 20.0446C18.099 17.8773 21.2718 16.2525 21.9851 16.9444C22.2302 17.1824 21.2146 21.7812 19.7291 27.1641C19.5418 27.8429 19.3652 28.483 19.1987 29.0867ZM34.801 17.562C41.7218 21.122 44.4287 29.8395 40.6277 36.3254C39.7543 37.8151 38.8031 39.0341 38.5127 39.0341C37.9815 39.0341 37.5162 37.6068 34.585 26.9868C33.2893 22.2904 32.7729 21.1863 31.8727 21.1863C30.4818 21.1863 30.4598 22.7777 31.6497 37.5467C32.1244 43.4365 32.52 48.7236 32.5296 49.2965C32.5438 50.2026 31.9293 50.3377 27.7868 50.3377C25.1691 50.3377 23.0274 50.1163 23.0274 49.8463C23.0274 49.5756 23.2838 46.564 23.5967 43.1533C23.9097 39.7426 24.4552 33.2038 24.8086 28.6228C24.8768 27.7386 24.9388 26.9181 24.9963 26.1569C25.5127 19.3252 25.6687 17.2612 26.69 16.6549C27.1322 16.3925 27.7365 16.4032 28.6025 16.4186C28.8253 16.4226 29.0655 16.4269 29.3247 16.4269C31.3736 16.4269 33.4172 16.8504 34.801 17.562Z" fill="#F7E8D7"/>
</svg>
